<svg xmlns="http://www.w3.org/2000/svg" viewBox="0 0 960 304" role="img"><style>
  text { font-family: Inter, ui-sans-serif, system-ui, sans-serif; fill: #172033; }
  .muted { fill: #64748b; }
  .grid { stroke: #dbe3ef; stroke-width: 1; }
  .track { fill: #edf2f7; }
  @media (prefers-color-scheme: dark) {
    text { fill: #edf3fb; }
    .muted { fill: #9aacbf; }
    .grid { stroke: #334155; }
    .track { fill: #1e293b; }
  }
</style><text x="48" y="48" font-size="26" font-weight="700">Chunk generation throughput</text><text x="48" y="76" font-size="14" class="muted">10,201 chunks · mean of three cold runs · dots show individual runs</text><line x1="215" y1="104" x2="215" y2="252" class="grid"/><text x="215" y="278" text-anchor="middle" font-size="12" class="muted">0</text><line x1="387.5" y1="104" x2="387.5" y2="252" class="grid"/><text x="387.5" y="278" text-anchor="middle" font-size="12" class="muted">875</text><line x1="560" y1="104" x2="560" y2="252" class="grid"/><text x="560" y="278" text-anchor="middle" font-size="12" class="muted">1,750</text><line x1="732.5" y1="104" x2="732.5" y2="252" class="grid"/><text x="732.5" y="278" text-anchor="middle" font-size="12" class="muted">2,625</text><line x1="905" y1="104" x2="905" y2="252" class="grid"/><text x="905" y="278" text-anchor="middle" font-size="12" class="muted">3,500</text><text x="48" y="147" font-size="17" font-weight="650">Steel</text><rect x="215" y="124" width="690" height="32" rx="8" class="track"/><rect x="215" y="124" width="503.8" height="32" rx="8" fill="#14b8a6"/><circle cx="715.5" cy="135" r="4" fill="#ffffff" stroke="#14b8a6" stroke-width="2"/><circle cx="721.4" cy="140" r="4" fill="#ffffff" stroke="#14b8a6" stroke-width="2"/><circle cx="719.7" cy="145" r="4" fill="#ffffff" stroke="#14b8a6" stroke-width="2"/><text x="733.4" y="146" text-anchor="start" font-size="15" font-weight="700">2,555.6 chunks/s</text><text x="48" y="227" font-size="17" font-weight="650">Fabric</text><rect x="215" y="204" width="690" height="32" rx="8" class="track"/><rect x="215" y="204" width="26.9" height="32" rx="8" fill="#f59e0b"/><circle cx="241.6" cy="215" r="4" fill="#ffffff" stroke="#f59e0b" stroke-width="2"/><circle cx="242.2" cy="220" r="4" fill="#ffffff" stroke="#f59e0b" stroke-width="2"/><circle cx="242.0" cy="225" r="4" fill="#ffffff" stroke="#f59e0b" stroke-width="2"/><text x="254.2" y="226" text-anchor="start" font-size="15" font-weight="700">136.7 chunks/s</text></svg>
