<svg xmlns="http://www.w3.org/2000/svg" viewBox="0 0 960 510" role="img"><style>
  text { font-family: Inter, ui-sans-serif, system-ui, sans-serif; fill: #172033; }
  .muted { fill: #64748b; }
  .grid { stroke: #dbe3ef; stroke-width: 1; }
  .track { fill: #edf2f7; }
  @media (prefers-color-scheme: dark) {
    text { fill: #edf3fb; }
    .muted { fill: #9aacbf; }
    .grid { stroke: #334155; }
    .track { fill: #1e293b; }
  }
</style><text x="48" y="48" font-size="26" font-weight="700">Throughput at larger region sizes</text><text x="48" y="76" font-size="14" class="muted">101×101: mean of three cold runs · 301×301: one cold run</text><line x1="215" y1="104" x2="215" y2="425" class="grid"/><text x="215" y="451" text-anchor="middle" font-size="12" class="muted">0</text><line x1="387.5" y1="104" x2="387.5" y2="425" class="grid"/><text x="387.5" y="451" text-anchor="middle" font-size="12" class="muted">750</text><line x1="560" y1="104" x2="560" y2="425" class="grid"/><text x="560" y="451" text-anchor="middle" font-size="12" class="muted">1,500</text><line x1="732.5" y1="104" x2="732.5" y2="425" class="grid"/><text x="732.5" y="451" text-anchor="middle" font-size="12" class="muted">2,250</text><line x1="905" y1="104" x2="905" y2="425" class="grid"/><text x="905" y="451" text-anchor="middle" font-size="12" class="muted">3,000</text><text x="48" y="158" font-size="17" font-weight="650">Steel</text><rect x="215" y="122" width="591.4" height="20" rx="5" fill="#14b8a6" opacity="0.55"/><text x="893.0" y="137" text-anchor="end" font-size="12" font-weight="650">2,571.2 · 101×101</text><rect x="215" y="152" width="648.4" height="20" rx="5" fill="#14b8a6" opacity="1"/><text x="893.0" y="167" text-anchor="end" font-size="12" font-weight="650">2,819.2 · 301×301</text><text x="48" y="263" font-size="17" font-weight="650">Fabric + C2ME</text><rect x="215" y="227" width="122.9" height="20" rx="5" fill="#8b5cf6" opacity="0.55"/><text x="346.9" y="242" text-anchor="start" font-size="12" font-weight="650">534.4 · 101×101</text><rect x="215" y="257" width="161.0" height="20" rx="5" fill="#8b5cf6" opacity="1"/><text x="385.0" y="272" text-anchor="start" font-size="12" font-weight="650">700.0 · 301×301</text><text x="48" y="368" font-size="17" font-weight="650">Fabric</text><rect x="215" y="332" width="31.5" height="20" rx="5" fill="#f59e0b" opacity="0.55"/><text x="255.5" y="347" text-anchor="start" font-size="12" font-weight="650">136.8 · 101×101</text><rect x="215" y="362" width="39.9" height="20" rx="5" fill="#f59e0b" opacity="1"/><text x="263.9" y="377" text-anchor="start" font-size="12" font-weight="650">173.6 · 301×301</text><text x="560" y="486" text-anchor="middle" font-size="12" class="muted">chunks per second</text></svg>
