<svg xmlns="http://www.w3.org/2000/svg" viewBox="0 0 960 304" role="img"><style>
  text { font-family: Inter, ui-sans-serif, system-ui, sans-serif; fill: #172033; }
  .muted { fill: #64748b; }
  .grid { stroke: #dbe3ef; stroke-width: 1; }
  .track { fill: #edf2f7; }
  @media (prefers-color-scheme: dark) {
    text { fill: #edf3fb; }
    .muted { fill: #9aacbf; }
    .grid { stroke: #334155; }
    .track { fill: #1e293b; }
  }
</style><text x="48" y="48" font-size="26" font-weight="700">CPU parallelism during generation</text><text x="48" y="76" font-size="14" class="muted">Mean process CPU time divided by wall time · 32 logical CPUs available</text><line x1="215" y1="104" x2="215" y2="252" class="grid"/><text x="215" y="278" text-anchor="middle" font-size="12" class="muted">0</text><line x1="387.5" y1="104" x2="387.5" y2="252" class="grid"/><text x="387.5" y="278" text-anchor="middle" font-size="12" class="muted">8</text><line x1="560" y1="104" x2="560" y2="252" class="grid"/><text x="560" y="278" text-anchor="middle" font-size="12" class="muted">16</text><line x1="732.5" y1="104" x2="732.5" y2="252" class="grid"/><text x="732.5" y="278" text-anchor="middle" font-size="12" class="muted">24</text><line x1="905" y1="104" x2="905" y2="252" class="grid"/><text x="905" y="278" text-anchor="middle" font-size="12" class="muted">32</text><text x="48" y="147" font-size="17" font-weight="650">Steel</text><rect x="215" y="124" width="690" height="32" rx="8" class="track"/><rect x="215" y="124" width="651.0" height="32" rx="8" fill="#14b8a6"/><circle cx="865.9" cy="135" r="4" fill="#ffffff" stroke="#14b8a6" stroke-width="2"/><circle cx="865.5" cy="140" r="4" fill="#ffffff" stroke="#14b8a6" stroke-width="2"/><circle cx="866.6" cy="145" r="4" fill="#ffffff" stroke="#14b8a6" stroke-width="2"/><text x="853.5" y="146" text-anchor="end" font-size="15" font-weight="700">30.2 cores</text><text x="48" y="227" font-size="17" font-weight="650">Fabric</text><rect x="215" y="204" width="690" height="32" rx="8" class="track"/><rect x="215" y="204" width="95.0" height="32" rx="8" fill="#f59e0b"/><circle cx="310.2" cy="215" r="4" fill="#ffffff" stroke="#f59e0b" stroke-width="2"/><circle cx="309.9" cy="220" r="4" fill="#ffffff" stroke="#f59e0b" stroke-width="2"/><circle cx="309.8" cy="225" r="4" fill="#ffffff" stroke="#f59e0b" stroke-width="2"/><text x="322.2" y="226" text-anchor="start" font-size="15" font-weight="700">4.4 cores</text></svg>
